<svg
        width="24" height="24" viewBox="0 0 24 24" fill="none" xmlns="http://www.w3.org/2000/svg">
    <path d="M18.0009 4.4804C16.4096 2.8891 14.2513 1.99512 12.0009 1.99512C9.75047 1.99512 7.59221 2.8891 6.00091 4.4804C4.40961 6.0717 3.51563 8.22996 3.51563 10.4804C3.51562 12.7308 4.40961 14.8891 6.00091 16.4804L11.2709 21.7604C11.3639 21.8541 11.4745 21.9285 11.5963 21.9793C11.7182 22.0301 11.8489 22.0562 11.9809 22.0562C12.1129 22.0562 12.2436 22.0301 12.3655 21.9793C12.4873 21.9285 12.5979 21.8541 12.6909 21.7604L18.0009 16.4304C19.5856 14.8457 20.4758 12.6965 20.4758 10.4554C20.4758 8.21434 19.5856 6.06508 18.0009 4.4804ZM16.5709 15.0004L12.0009 19.5904L7.43091 15.0004C6.52805 14.0967 5.91338 12.9456 5.6646 11.6927C5.41582 10.4397 5.54409 9.14115 6.03321 7.96108C6.52233 6.78101 7.35032 5.77245 8.41254 5.06288C9.47475 4.3533 10.7235 3.97458 12.0009 3.97458C13.2783 3.97458 14.5271 4.3533 15.5893 5.06288C16.6515 5.77245 17.4795 6.78101 17.9686 7.96108C18.4577 9.14115 18.586 10.4397 18.3372 11.6927C18.0884 12.9456 17.4738 14.0967 16.5709 15.0004ZM9.00091 7.4104C8.19362 8.22017 7.7403 9.31697 7.7403 10.4604C7.7403 11.6038 8.19362 12.7006 9.00091 13.5104C9.60067 14.1112 10.3645 14.5215 11.1966 14.6898C12.0286 14.8581 12.8919 14.777 13.678 14.4566C14.4641 14.1361 15.1381 13.5907 15.6154 12.8886C16.0927 12.1866 16.352 11.3593 16.3609 10.5104C16.3654 9.9436 16.2562 9.38166 16.0398 8.85779C15.8234 8.33392 15.5041 7.85875 15.1009 7.4604C14.7046 7.05498 14.232 6.73194 13.7103 6.50986C13.1887 6.28779 12.6282 6.17107 12.0613 6.16643C11.4944 6.16178 10.9321 6.2693 10.4069 6.48279C9.88165 6.69628 9.40383 7.01153 9.00091 7.4104ZM13.6909 12.0904C13.3119 12.4751 12.8111 12.7163 12.274 12.7727C11.7369 12.829 11.197 12.697 10.7464 12.3993C10.2959 12.1016 9.9627 11.6566 9.80391 11.1405C9.64512 10.6243 9.67056 10.069 9.87586 9.56955C10.0812 9.07007 10.4536 8.65741 10.9295 8.40213C11.4054 8.14686 11.9552 8.06481 12.4848 8.17002C13.0145 8.27522 13.4912 8.56116 13.8334 8.97893C14.1756 9.3967 14.3621 9.92037 14.3609 10.4604C14.3464 11.0777 14.0874 11.6639 13.6409 12.0904H13.6909Z"
          fill="#777FB0"/>
</svg>
